<svg xmlns="http://www.w3.org/2000/svg" xmlns:xlink="http://www.w3.org/1999/xlink" version="1.1" x="0px" y="0px" viewBox="0 0 100 125" style="enable-background:new 0 0 100 100;" xml:space="preserve"><path d="M50,0C22.4,0,0,22.4,0,50c0,27.6,22.4,50,50,50c27.6,0,50-22.4,50-50C100,22.4,77.6,0,50,0z M50,96.3  C24.5,96.3,3.7,75.5,3.7,50S24.5,3.7,50,3.7S96.3,24.5,96.3,50S75.5,96.3,50,96.3z"/><path d="M35.2,35.1c-0.7-0.7-1.9-0.7-2.6,0L17.5,50.1l15.1,15.1c0.4,0.4,0.8,0.5,1.3,0.5c0.5,0,0.9-0.2,1.3-0.5  c0.7-0.7,0.7-1.9,0-2.6L22.8,50.1l12.4-12.4C36,37,36,35.8,35.2,35.1z"/><path d="M64.8,35.1c-0.7,0.7-0.7,1.9,0,2.6l12.4,12.4L64.8,62.6c-0.7,0.7-0.7,1.9,0,2.6c0.4,0.4,0.8,0.5,1.3,0.5s0.9-0.2,1.3-0.5  l15.1-15.1L67.4,35.1C66.7,34.4,65.5,34.4,64.8,35.1z"/><path d="M60.3,27.2c-0.9-0.4-2,0-2.4,1L39.3,70.7c-0.4,0.9,0,2,1,2.4c0.2,0.1,0.5,0.2,0.7,0.2c0.7,0,1.4-0.4,1.7-1.1l18.6-42.5  C61.7,28.7,61.2,27.6,60.3,27.2z"/><text x="0" y="115" fill="#000000" font-size="5px" font-weight="bold" font-family="'Helvetica Neue', Helvetica, Arial-Unicode, Arial, Sans-serif">Created by Jonathan Gibson</text><text x="0" y="120" fill="#000000" font-size="5px" font-weight="bold" font-family="'Helvetica Neue', Helvetica, Arial-Unicode, Arial, Sans-serif">from the Noun Project</text></svg>